<?xml version="1.0" encoding="utf-8" ?><svg xmlns="http://www.w3.org/2000/svg" xmlns:xlink="http://www.w3.org/1999/xlink" width="512" height="512" viewBox="0 0 512 512"><path fill="#264653" d="M76.1157 361.253C75.8756 359.345 76.0679 355.887 76.0869 353.83L76.1177 154.321C76.1273 148.012 81.4756 146.299 86.3401 143.875L239.206 66.0116C244.543 63.3035 249.904 60.4378 255.468 58.2472C258.359 58.1904 293.074 76.8213 298.848 79.771L415.603 138.567C435.614 148.676 435.746 144.478 435.749 167.988L435.764 349.639C435.766 364.271 437.539 360.909 424.383 367.627L284.061 439.123C279.488 441.484 260.63 451.806 256.334 452.775C252.349 452.559 224.362 437.348 218.671 434.501L88.7854 368.252C86.2245 366.936 77.9715 362.929 76.1157 361.253ZM255.468 64.9821L101.814 143.161C98.9512 144.588 95.3078 146.272 92.5999 147.775C95.6557 149.681 101.319 152.244 104.755 153.942L231.776 217.329C239.889 221.319 248.553 225.387 256.334 229.883C266.376 224.409 276.111 219.671 286.323 214.581L389.809 161.924C398.615 157.537 409.648 151.667 418.499 147.775C414.126 144.837 406.106 141.139 401.156 138.652L284.204 79.35C281.956 78.2142 256.041 64.9885 255.468 64.9821ZM425.702 151.384C421.844 152.635 415.53 156.512 411.346 158.449C393.614 166.657 376.374 175.991 358.917 184.817L267.847 230.878C264.668 232.487 260.871 234.139 258.189 236.378C259.792 237.394 261.09 238.257 262.617 239.377C264.468 239.465 273.138 234.735 275.251 233.681L411.91 164.627C417.261 161.931 424.3 158.116 429.587 155.803C428.959 153.3 428.588 151.759 425.702 151.384ZM84.1092 151.384C78.1914 156.739 88.556 159.155 93.467 161.608L248.469 239.377L251.674 237.995C252.881 237.489 254.302 236.929 255.468 236.378C250.379 234.141 244.874 230.94 239.856 228.368L111.44 164.362C107.396 162.38 86.8874 151.726 84.1092 151.384ZM429.587 162.965C423.806 165.218 414.878 170.221 409.12 173.132L291.804 232.434C284.141 236.378 273.119 241.383 266.059 245.531L266.063 386.924C266.063 392.41 265.734 439.399 266.402 440.962C266.975 441.052 266.737 441.076 267.121 440.994C271.099 438.088 276.313 435.656 280.77 433.37L414.894 365.303C418.795 363.346 425.809 359.047 429.587 357.919C429.535 342.494 429.675 163.115 429.587 162.965ZM82.3627 162.965L82.3627 357.919C95.9327 363.872 110.784 372.437 124.23 379.241L220.653 428.054C224 429.732 244.776 440.738 246.31 440.994L246.308 264.949C246.307 258.949 246.066 251.348 246.31 245.531C242.089 243.045 237.096 240.668 232.683 238.443L96.3476 170.154C91.8348 167.879 86.6004 165.53 82.3627 162.965ZM259.434 247.463C256.949 247.61 255.192 247.555 252.722 247.463L252.733 423.6C252.731 427.316 251.572 443.822 254.058 445.256C255.966 446.017 258.947 445.543 259.711 443.344C260.301 441.648 259.886 411.449 259.887 406.359L259.896 301.643C259.897 284.234 259.485 264.979 259.961 247.671L259.658 247.417L259.434 247.463Z"/><path fill="#F4A261" d="M92.5999 147.775C95.3078 146.272 98.9512 144.588 101.814 143.161L255.468 64.9821C256.041 64.9885 281.956 78.2142 284.204 79.35L401.156 138.652C406.106 141.139 414.126 144.837 418.499 147.775C409.648 151.667 398.615 157.537 389.809 161.924L286.323 214.581C276.111 219.671 266.376 224.409 256.334 229.883C248.553 225.387 239.889 221.319 231.776 217.329L104.755 153.942C101.319 152.244 95.6557 149.681 92.5999 147.775ZM255.468 95.2126C250.669 97.2209 243.537 101.143 238.726 103.603L186.122 130.443C169.125 138.906 173.543 136.276 173.776 158.24C177.17 160.535 182.94 163.368 186.745 165.36L210.871 177.794C217.745 181.305 253.492 201.854 258.189 199.848C276.037 191.141 293.366 182.181 311.029 173.192L330.493 163.157C332.952 161.884 337.751 159.587 339.926 158.24C340.324 136.277 344.174 139.496 327.613 131.136L305.526 120.017C299.773 117.178 258.473 95.6041 255.468 95.2126Z"/><path fill="#264653" d="M173.776 158.24C173.543 136.276 169.125 138.906 186.122 130.443L238.726 103.603C243.537 101.143 250.669 97.2209 255.468 95.2126C258.473 95.6041 299.773 117.178 305.526 120.017L327.613 131.136C344.174 139.496 340.324 136.277 339.926 158.24C337.751 159.587 332.952 161.884 330.493 163.157L311.029 173.192C293.366 182.181 276.037 191.141 258.189 199.848C253.492 201.854 217.745 181.305 210.871 177.794L186.745 165.36C182.94 163.368 177.17 160.535 173.776 158.24ZM252.722 103.757C248.413 105.583 243.214 108.601 238.928 110.78L191.002 135.288C188.268 136.698 182.462 139.52 180.088 141.214C180.078 145.454 179.917 150.676 180.088 154.834C188.181 158.584 197.29 163.728 205.416 167.871L234.012 182.477C239.887 185.455 247.573 188.845 252.722 192.615L252.746 112.185C252.753 109.783 253.273 106.277 253.144 104.106L252.722 103.757ZM259.434 103.757C259.173 107.944 259.369 111.887 259.415 116.064L259.434 192.615C266.457 188.643 301.247 169.452 308.372 167.871C315.417 162.506 327.205 158.841 333.712 153.879L333.712 141.214C326.231 138.132 318.102 133.484 310.803 129.774L276.378 112.527C272.102 110.35 263.389 105.31 259.434 103.757Z"/><path fill="#E76F51" d="M180.088 141.214C182.462 139.52 188.268 136.698 191.002 135.288L238.928 110.78C243.214 108.601 248.413 105.583 252.722 103.757L253.144 104.106C253.273 106.277 252.753 109.783 252.746 112.185L252.722 192.615C247.573 188.845 239.887 185.455 234.012 182.477L205.416 167.871C197.29 163.728 188.181 158.584 180.088 154.834C179.917 150.676 180.078 145.454 180.088 141.214Z"/><path fill="#BF5621" d="M259.434 192.615L259.415 116.064C259.369 111.887 259.173 107.944 259.434 103.757C263.389 105.31 272.102 110.35 276.378 112.527L310.803 129.774C318.102 133.484 326.231 138.132 333.712 141.214L333.712 153.879C327.205 158.841 315.417 162.506 308.372 167.871C301.247 169.452 266.457 188.643 259.434 192.615Z"/><path fill="#2A9D8F" d="M258.189 236.378C260.871 234.139 264.668 232.487 267.847 230.878L358.917 184.817C376.374 175.991 393.614 166.657 411.346 158.449C415.53 156.512 421.844 152.635 425.702 151.384C428.588 151.759 428.959 153.3 429.587 155.803C424.3 158.116 417.261 161.931 411.91 164.627L275.251 233.681C273.138 234.735 264.468 239.465 262.617 239.377C261.09 238.257 259.792 237.394 258.189 236.378Z"/><path fill="#2A9D8F" d="M248.469 239.377L93.467 161.608C88.556 159.155 78.1914 156.739 84.1092 151.384C86.8874 151.726 107.396 162.38 111.44 164.362L239.856 228.368C244.874 230.94 250.379 234.141 255.468 236.378C254.302 236.929 252.881 237.489 251.674 237.995L248.469 239.377Z"/><path fill="#E9C46A" d="M266.059 245.531C273.119 241.383 284.141 236.378 291.804 232.434L409.12 173.132C414.878 170.221 423.806 165.218 429.587 162.965C429.675 163.115 429.535 342.494 429.587 357.919C425.809 359.047 418.795 363.346 414.894 365.303L280.77 433.37C276.313 435.656 271.099 438.088 267.121 440.994C266.737 441.076 266.975 441.052 266.402 440.962C265.734 439.399 266.063 392.41 266.063 386.924L266.059 245.531ZM391.193 227.326C385.831 228.259 373.647 235.28 368.412 237.999L320.123 263.157C296.82 275.151 294.762 285.056 294.866 308.651L294.87 351.59C294.852 362.03 293.721 379.486 309.88 376.689C313.592 375.545 321.82 371.205 325.622 369.326L377.765 343.208C399.964 331.865 405.524 324.058 405.507 299.538L405.491 255.908C405.495 245.128 407.701 225.991 391.193 227.326Z"/><path fill="#5BBEA6" d="M82.3627 357.919L82.3627 162.965C86.6004 165.53 91.8348 167.879 96.3476 170.154L232.683 238.443C237.096 240.668 242.089 243.045 246.31 245.531C246.066 251.348 246.307 258.949 246.308 264.949L246.31 440.994C244.776 440.738 224 429.732 220.653 428.054L124.23 379.241C110.784 372.437 95.9327 363.872 82.3627 357.919ZM119.252 225.572C105.463 227.93 107.78 243.446 107.774 253.984L107.768 301.615C107.775 329.561 113.815 332.989 139.145 345.55L192.566 372.131C198.077 374.929 204.389 379.255 210.651 378.807C223.348 376.544 221.487 364.493 221.492 354.719L221.49 306.132C221.472 276.804 218.382 273.198 190.7 259.188L138.981 232.739C133.18 229.82 125.89 225.012 119.252 225.572Z"/><path fill="#264653" d="M210.651 378.807C204.389 379.255 198.077 374.929 192.566 372.131L139.145 345.55C113.815 332.989 107.775 329.561 107.768 301.615L107.774 253.984C107.78 243.446 105.463 227.93 119.252 225.572C125.89 225.012 133.18 229.82 138.981 232.739L190.7 259.188C218.382 273.198 221.472 276.804 221.49 306.132L221.492 354.719C221.487 364.493 223.348 376.544 210.651 378.807ZM120.742 232.049C111.896 233.665 113.981 246.903 113.991 253.761L113.993 301.45C113.981 326.95 117.263 327.044 140.553 339.12C148.392 343.185 205.833 372.221 209.168 372.343C216.959 371.511 215.166 361.092 215.155 355.279L215.151 306.873C215.164 281.496 214.336 278.106 193.002 267.329L143.076 242C138.177 239.458 125.538 232.109 120.742 232.049Z"/><path fill="#264653" d="M309.88 376.689C293.721 379.486 294.852 362.03 294.87 351.59L294.866 308.651C294.762 285.056 296.82 275.151 320.123 263.157L368.412 237.999C373.647 235.28 385.831 228.259 391.193 227.326C407.701 225.991 405.495 245.128 405.491 255.908L405.507 299.538C405.524 324.058 399.964 331.865 377.765 343.208L325.622 369.326C321.82 371.205 313.592 375.545 309.88 376.689ZM390.087 234.056C385.656 235.731 381.696 238.586 377.414 240.64C358.547 249.688 340.344 260.003 321.673 269.421C303.506 278.584 300.772 285.105 300.796 306.573L300.814 345.949C300.809 350.256 298.85 375.014 309.88 370.448C329.689 359.881 349.898 350.387 369.828 340.073C396.047 326.505 399.475 325.605 399.444 296.489L399.44 255.928C399.442 248.885 401.259 232.776 390.087 234.056Z"/><path fill="#E9C46A" d="M209.168 372.343C205.833 372.221 148.392 343.185 140.553 339.12C117.263 327.044 113.981 326.95 113.993 301.45L113.991 253.761C113.981 246.903 111.896 233.665 120.742 232.049C125.538 232.109 138.177 239.458 143.076 242L193.002 267.329C214.336 278.106 215.164 281.496 215.151 306.873L215.155 355.279C215.166 361.092 216.959 371.511 209.168 372.343ZM168.116 268.95C156.354 274.326 143.995 279.074 132.571 285.077C141.439 300.339 150.982 316.311 160.43 331.234C167.511 328.733 189.748 319.602 195.502 315.823C193.768 311.609 186.287 299.665 183.651 295.216L172.048 275.364C170.842 273.3 169.779 271.107 168.547 269.093L168.116 268.95Z"/><path fill="#E76F51" d="M309.88 370.448C298.85 375.014 300.809 350.256 300.814 345.949L300.796 306.573C300.772 285.105 303.506 278.584 321.673 269.421C340.344 260.003 358.547 249.688 377.414 240.64C381.696 238.586 385.656 235.731 390.087 234.056C401.259 232.776 399.442 248.885 399.44 255.928L399.444 296.489C399.475 325.605 396.047 326.505 369.828 340.073C349.898 350.387 329.689 359.881 309.88 370.448ZM372.355 259.102C361.493 259.927 354.17 267.499 347.838 275.592C328.643 263.795 295.336 313.012 322.247 328.234C325.318 329.971 329.132 331.491 332.438 332.937C335.772 334.239 348.575 340.985 351.329 339.977C354.938 337.015 378.895 300.353 381.517 294.981C386.822 284.114 389.753 258.367 372.355 259.102Z"/><path fill="#2A9D8F" d="M252.722 247.463C255.192 247.555 256.949 247.61 259.434 247.463L259.658 247.417L259.961 247.671C259.485 264.979 259.897 284.234 259.896 301.643L259.887 406.359C259.886 411.449 260.301 441.648 259.711 443.344C258.947 445.543 255.966 446.017 254.058 445.256C251.572 443.822 252.731 427.316 252.733 423.6L252.722 247.463Z"/><path fill="#264653" d="M347.838 275.592C354.17 267.499 361.493 259.927 372.355 259.102C389.753 258.367 386.822 284.114 381.517 294.981C378.895 300.353 354.938 337.015 351.329 339.977C348.575 340.985 335.772 334.239 332.438 332.937C329.132 331.491 325.318 329.971 322.247 328.234C295.336 313.012 328.643 263.795 347.838 275.592ZM369.872 266.036C355.411 269.141 354.09 280.951 347.838 283.637C343.381 281.356 342.28 279.751 337.033 281.446C325.131 285.47 315.216 302.265 319.528 314.565C321.991 321.589 327.273 323.289 333.712 325.841L349.754 332.937C359.476 317.653 383.151 290.417 379.393 274.009C378.308 269.274 374.993 265.577 369.872 266.036Z"/><path fill="#E76F51" d="M347.838 283.637C354.09 280.951 355.411 269.141 369.872 266.036C374.993 265.577 378.308 269.274 379.393 274.009C383.151 290.417 359.476 317.653 349.754 332.937L333.712 325.841C327.273 323.289 321.991 321.589 319.528 314.565C315.216 302.265 325.131 285.47 337.033 281.446C342.28 279.751 343.381 281.356 347.838 283.637Z"/><path fill="#264653" d="M132.571 285.077C143.995 279.074 156.354 274.326 168.116 268.95L168.547 269.093C169.779 271.107 170.842 273.3 172.048 275.364L183.651 295.216C186.287 299.665 193.768 311.609 195.502 315.823C189.748 319.602 167.511 328.733 160.43 331.234C150.982 316.311 141.439 300.339 132.571 285.077ZM165.314 277.189C157.704 280.995 149.174 284.082 141.657 287.871C145.043 294.385 158.094 317.255 162.79 323.098L163.36 323.258C171.112 319.991 179.65 316.607 187.051 312.806C184.735 308.822 166.843 277.358 165.314 277.189Z"/><path fill="#2A9D8F" d="M141.657 287.871C149.174 284.082 157.704 280.995 165.314 277.189C166.843 277.358 184.735 308.822 187.051 312.806C179.65 316.607 171.112 319.991 163.36 323.258L162.79 323.098C158.094 317.255 145.043 294.385 141.657 287.871Z"/></svg>