<?xml version="1.0" encoding="utf-8" ?><svg xmlns="http://www.w3.org/2000/svg" xmlns:xlink="http://www.w3.org/1999/xlink" width="1024" height="1024" viewBox="0 0 1024 1024"><path fill="#79793E" transform="scale(2 2)" d="M257.469 465.37C250.99 466.433 216.109 442.718 209.004 438.294L99.1205 370.274C95.3043 367.902 79.2624 359.494 77.9537 355.98C76.5805 352.294 77.2357 323.808 77.2349 317.563L77.2758 160.7C77.102 148.704 107.271 135.402 117.244 129.251L236.875 55.9361C242.503 52.5448 249.074 48.0363 254.85 45.275C258.729 45.0305 265.694 50.4616 269.264 52.6301L410.859 139.26C420.556 145.26 434.17 150.043 434.352 162.516C434.474 170.909 434.419 179.381 434.418 187.776L434.392 349.795C434.372 355.198 433.991 356.605 429.215 359.553L272.437 456.725C268.651 459.061 261.327 463.987 257.469 465.37ZM255.606 53.057C249.767 56.3503 243.16 60.7048 237.398 64.2762L103.613 146.087C99.7214 148.488 90.1934 153.958 87.3586 156.688C92.3137 159.618 97.6827 163.255 102.692 166.351L238.637 250.059C244.506 253.702 250.527 257.631 256.539 261.01L408.1 166.62C411.609 164.415 421.114 158.119 424.411 156.688C421.162 154.035 416.873 151.515 413.26 149.297L271.16 62.3931C265.901 59.1915 261.035 56.0552 255.606 53.057ZM84.5364 163.456L84.5364 353.068C87.211 354.092 95.4214 359.431 98.4431 361.297L236.495 446.533C241.283 449.473 246.91 453.296 251.756 455.793C252.091 455.523 252.006 455.673 252.107 455.411C252.36 434.802 252.108 413.574 252.107 392.916L252.107 267.557C248.612 264.412 240.419 259.625 236.114 256.993L100.973 173.865C95.9528 170.817 89.4656 165.849 84.5364 163.456ZM427.353 163.456C416.523 169.91 405.283 177.104 394.531 183.758L277.025 256.813C271.77 260.13 264.387 264.158 259.534 267.557L259.538 431.292C259.538 434.248 259.224 454.147 259.988 455.503L260.619 455.411C266.192 451.657 272.159 448.173 277.922 444.693L387.285 377.51C397.44 371.157 418.77 359.36 427.353 351.84C427.106 334.688 427.57 163.783 427.353 163.456Z"/><path fill="#F6F4D2" transform="scale(2 2)" d="M87.3586 156.688C90.1934 153.958 99.7214 148.488 103.613 146.087L237.398 64.2762C243.16 60.7048 249.767 56.3503 255.606 53.057C261.035 56.0552 265.901 59.1915 271.16 62.3931L413.26 149.297C416.873 151.515 421.162 154.035 424.411 156.688C421.114 158.119 411.609 164.415 408.1 166.62L256.539 261.01C250.527 257.631 244.506 253.702 238.637 250.059L102.692 166.351C97.6827 163.255 92.3137 159.618 87.3586 156.688ZM251.881 100.531C220.322 102.898 196.695 130.46 199.181 162.01C201.667 193.56 229.318 217.082 260.858 214.478C292.231 211.887 315.601 184.415 313.129 153.033C310.656 121.65 283.272 98.1766 251.881 100.531Z"/><path fill="#B06D46" transform="scale(2 2)" d="M260.858 214.478C229.318 217.082 201.667 193.56 199.181 162.01C196.695 130.46 220.322 102.898 251.881 100.531C283.272 98.1766 310.656 121.65 313.129 153.033C315.601 184.415 292.231 211.887 260.858 214.478ZM253.426 107.254C225.659 108.748 204.364 132.473 205.866 160.24C207.368 188.007 231.098 209.296 258.865 207.787C286.621 206.278 307.9 182.558 306.399 154.802C304.897 127.045 281.183 105.759 253.426 107.254Z"/><path fill="#F6F4D2" transform="scale(2 2)" d="M258.865 207.787C231.098 209.296 207.368 188.007 205.866 160.24C204.364 132.473 225.659 108.748 253.426 107.254C281.183 105.759 304.897 127.045 306.399 154.802C307.9 182.558 286.621 206.278 258.865 207.787ZM269.397 128.101C263.519 128.487 259.973 129.899 255.606 134.017C241.758 120.843 220.57 130.805 221.211 149.608C221.495 157.956 239.916 174.49 246.412 179.687C248.214 182.498 253.854 190.467 257.793 187.927C262.79 184.706 288.79 159.368 290.161 152.317C292.766 138.928 282.387 128.117 269.397 128.101Z"/><path fill="#B06D46" transform="scale(2 2)" d="M255.606 134.017C259.973 129.899 263.519 128.487 269.397 128.101C282.387 128.117 292.766 138.928 290.161 152.317C288.79 159.368 262.79 184.706 257.793 187.927C253.854 190.467 248.214 182.498 246.412 179.687C239.916 174.49 221.495 157.956 221.211 149.608C220.57 130.805 241.758 120.843 255.606 134.017ZM269.397 135.078C264.436 135.723 262.769 138.055 258.846 140.727C252.448 145.085 251.03 134.051 239.739 135.289C232.651 136.015 227.378 142.672 228.414 149.735C229.163 154.84 242.533 166.69 246.412 170.549C249.382 173.608 253.28 177.87 256.539 180.484C259.053 177.14 262.303 174.058 265.242 171.042L275.146 160.793C279.074 156.785 284.56 152.849 283.516 146.698C282.373 139.965 276.452 134.353 269.397 135.078Z"/><path fill="#F19C79" transform="scale(2 2)" d="M246.412 170.549C242.533 166.69 229.163 154.84 228.414 149.735C227.378 142.672 232.651 136.015 239.739 135.289C251.03 134.051 252.448 145.085 258.846 140.727C262.769 138.055 264.436 135.723 269.397 135.078C276.452 134.353 282.373 139.965 283.516 146.698C284.56 152.849 279.074 156.785 275.146 160.793L265.242 171.042C262.303 174.058 259.053 177.14 256.539 180.484C253.28 177.87 249.382 173.608 246.412 170.549Z"/><path fill="#CBDFBD" transform="scale(2 2)" d="M84.5364 353.068L84.5364 163.456C89.4656 165.849 95.9528 170.817 100.973 173.865L236.114 256.993C240.419 259.625 248.612 264.412 252.107 267.557L252.107 392.916C252.108 413.574 252.36 434.802 252.107 455.411C252.006 455.673 252.091 455.523 251.756 455.793C246.91 453.296 241.283 449.473 236.495 446.533L98.4431 361.297C95.4214 359.431 87.211 354.092 84.5364 353.068ZM157.345 252.319C127.146 254.774 108.105 279.781 110.448 309.444C113.06 342.522 146.506 372.339 179.349 374.704C191.134 374.845 201.396 373.038 209.991 364.151C249.913 322.87 210.271 247.487 157.345 252.319Z"/><path fill="#CBDFBD" transform="scale(2 2)" d="M259.534 267.557C264.387 264.158 271.77 260.13 277.025 256.813L394.531 183.758C405.283 177.104 416.523 169.91 427.353 163.456C427.57 163.783 427.106 334.688 427.353 351.84C418.77 359.36 397.44 371.157 387.285 377.51L277.922 444.693C272.159 448.173 266.192 451.657 260.619 455.411L259.988 455.503C259.224 454.147 259.538 434.248 259.538 431.292L259.534 267.557ZM364.453 248.809C320.491 250.204 257.824 326.918 293.949 362.667C301.451 370.09 313.92 371.739 323.96 370.428C352.711 364.767 373.233 351.605 390.281 326.967C404.518 306.391 414.187 271.998 389.791 254.933C383.18 250.308 372.456 247.364 364.453 248.809Z"/><path fill="#B06D46" transform="scale(2 2)" d="M323.96 370.428C313.92 371.739 301.451 370.09 293.949 362.667C257.824 326.918 320.491 250.204 364.453 248.809C372.456 247.364 383.18 250.308 389.791 254.933C414.187 271.998 404.518 306.391 390.281 326.967C373.233 351.605 352.711 364.767 323.96 370.428ZM364.453 255.347C328.847 259.066 287.43 304.337 290.484 340.777C291.616 354.284 302.016 364.003 315.519 363.961C318.319 363.952 321.154 363.743 323.96 363.96C330.422 361.725 336.577 360.725 343.009 357.97C364.904 348.592 381.855 331.415 392.124 310.032C400.054 293.521 402.194 267.499 382.392 258.453C377.739 256.328 369.558 254.413 364.453 255.347Z"/><path fill="#B06D46" transform="scale(2 2)" d="M179.349 374.704C146.506 372.339 113.06 342.522 110.448 309.444C108.105 279.781 127.146 254.774 157.345 252.319C210.271 247.487 249.913 322.87 209.991 364.151C201.396 373.038 191.134 374.845 179.349 374.704ZM157.345 259.598C145.822 260.601 136.452 264.441 128.912 273.369C96.6957 311.518 136.797 363.755 180.617 367.713C205.759 368.217 218.947 346.363 219.193 323.339C219.536 291.112 190.889 256.004 157.345 259.598Z"/><path fill="#F6F4D2" transform="scale(2 2)" d="M323.96 363.96C321.154 363.743 318.319 363.952 315.519 363.961C302.016 364.003 291.616 354.284 290.484 340.777C287.43 304.337 328.847 259.066 364.453 255.347C369.558 254.413 377.739 256.328 382.392 258.453C402.194 267.499 400.054 293.521 392.124 310.032C381.855 331.415 364.904 348.592 343.009 357.97C336.577 360.725 330.422 361.725 323.96 363.96ZM349.488 276.488C338.073 283.79 366.261 283.013 369.657 285.548C374.09 288.959 369.463 306.94 376.549 305.011C381.733 302.276 379.679 279.109 367.931 277.37C363.122 276.658 354.391 276.046 349.488 276.488ZM313.014 314.717C307.695 318.11 310.311 335.734 313.36 339.846C317.765 345.786 330.198 344.843 337.312 344.524C340.428 343.543 341.641 339.743 337.877 338.476C333.026 336.843 320.956 340.18 318.254 334.841C315.796 329.983 320.447 314.378 313.014 314.717Z"/><path fill="#CBDFBD" transform="scale(2 2)" d="M180.617 367.713C136.797 363.755 96.6957 311.518 128.912 273.369C136.452 264.441 145.822 260.601 157.345 259.598C190.889 256.004 219.536 291.112 219.193 323.339C218.947 346.363 205.759 368.217 180.617 367.713ZM146.701 270.3C136.438 271.045 128.72 279.966 129.459 290.229C130.198 300.492 139.114 308.215 149.378 307.482C159.65 306.748 167.38 297.824 166.641 287.552C165.901 277.28 156.972 269.555 146.701 270.3ZM185.213 322.824C174.86 324.38 167.742 334.051 169.332 344.399C170.923 354.746 180.617 361.833 190.96 360.208C201.254 358.591 208.3 348.951 206.717 338.652C205.134 328.353 195.517 321.274 185.213 322.824Z"/><path fill="#B06D46" transform="scale(2 2)" d="M149.378 307.482C139.114 308.215 130.198 300.492 129.459 290.229C128.72 279.966 136.438 271.045 146.701 270.3C156.972 269.555 165.901 277.28 166.641 287.552C167.38 297.824 159.65 306.748 149.378 307.482ZM146.225 277.498C140.006 278.518 135.786 284.379 136.791 290.6C137.797 296.821 143.649 301.055 149.872 300.063C156.116 299.069 160.365 293.194 159.357 286.953C158.348 280.712 152.464 276.475 146.225 277.498Z"/><path fill="#B06D46" transform="scale(2 2)" d="M376.549 305.011C369.463 306.94 374.09 288.959 369.657 285.548C366.261 283.013 338.073 283.79 349.488 276.488C354.391 276.046 363.122 276.658 367.931 277.37C379.679 279.109 381.733 302.276 376.549 305.011Z"/><path fill="#F19C79" transform="scale(2 2)" d="M149.872 300.063C143.649 301.055 137.797 296.821 136.791 290.6C135.786 284.379 140.006 278.518 146.225 277.498C152.464 276.475 158.348 280.712 159.357 286.953C160.365 293.194 156.116 299.069 149.872 300.063Z"/><path fill="#B06D46" transform="scale(2 2)" d="M337.312 344.524C330.198 344.843 317.765 345.786 313.36 339.846C310.311 335.734 307.695 318.11 313.014 314.717C320.447 314.378 315.796 329.983 318.254 334.841C320.956 340.18 333.026 336.843 337.877 338.476C341.641 339.743 340.428 343.543 337.312 344.524Z"/><path fill="#B06D46" transform="scale(2 2)" d="M190.96 360.208C180.617 361.833 170.923 354.746 169.332 344.399C167.742 334.051 174.86 324.38 185.213 322.824C195.517 321.274 205.134 328.353 206.717 338.652C208.3 348.951 201.254 358.591 190.96 360.208ZM186.832 329.901C182.673 330.316 179.057 332.934 177.364 336.756C175.671 340.579 176.162 345.016 178.65 348.375C181.138 351.735 185.239 353.498 189.389 352.993C195.709 352.225 200.233 346.511 199.533 340.183C198.832 333.854 193.168 329.269 186.832 329.901Z"/><path fill="#F19C79" transform="scale(2 2)" d="M189.389 352.993C185.239 353.498 181.138 351.735 178.65 348.375C176.162 345.016 175.671 340.579 177.364 336.756C179.057 332.934 182.673 330.316 186.832 329.901C193.168 329.269 198.832 333.854 199.533 340.183C200.233 346.511 195.709 352.225 189.389 352.993Z"/></svg>